# xmcd
#
# Track frame offsets: 
#        150
#        20635
#        37667
#        53115
#        74927
#        91235
#        107370
#        122190
#        141200
#        159382
#
# Disc length: 2345 seconds
#
# Revision: 1
# Processed by: cddbd v1.5.2PL0 Copyright (c) Steve Scherf et al.
# Submitted via: ExactAudioCopy v0.99pb5
#
DISCID=8309270a
DTITLE=Sonny Boy Williamson - Portrait Of A Blues Man
DYEAR=2000
DGENRE=Blues
TTITLE0=Little Girl
TTITLE1=Movin' Down The River Rhine
TTITLE2=Down And Out (take 1)
TTITLE3=The Story Of Sonny Boy Williamson
TTITLE4=On My Way Back Home
TTITLE5=Down And Out (take 2)
TTITLE6=Chicago Bounce
TTITLE7=I'm So Glad
TTITLE8=I Wonder, Do I Have A Friend
TTITLE9=Copenhagen Woman
EXTD=
EXTT0=
EXTT1=
EXTT2=Take 1
EXTT3=
EXTT4=
EXTT5=Take 2
EXTT6=
EXTT7=
EXTT8=
EXTT9=
PLAYORDER=
